<?xml version="1.0" encoding="UTF-8"?>
<svg version="1.1" xmlns="http://www.w3.org/2000/svg" width="398" height="131">
<path d="M0 0 C6.77966711 3.97332949 10.08466954 9.28752617 12.2421875 16.71484375 C12.38914062 17.28332031 12.53609375 17.85179688 12.6875 18.4375 C14.47607422 18.51097656 14.47607422 18.51097656 16.30078125 18.5859375 C17.86721068 18.66097604 19.43361579 18.7365234 21 18.8125 C21.78568359 18.8434375 22.57136719 18.874375 23.38085938 18.90625 C24.5168457 18.96425781 24.5168457 18.96425781 25.67578125 19.0234375 C26.37227783 19.0548584 27.06877441 19.0862793 27.78637695 19.11865234 C29.6875 19.4375 29.6875 19.4375 32.6875 21.4375 C33.49609375 24.3671875 33.49609375 24.3671875 34.125 28.3125 C34.24423828 29.04500977 34.36347656 29.77751953 34.48632812 30.53222656 C34.90607553 33.16470328 35.29939372 35.80017204 35.6875 38.4375 C35.8436377 39.49549805 35.99977539 40.55349609 36.16064453 41.64355469 C37.20252344 48.75847755 38.2099376 55.87798659 39.20556641 62.99951172 C39.91837361 68.08449201 40.64653862 73.1672431 41.375 78.25 C41.71364725 80.61961548 42.05215266 82.98924688 42.38891602 85.35913086 C42.67080324 87.32127801 42.96395524 89.2817973 43.2578125 91.2421875 C43.77564219 95.09295736 43.88483092 98.55665857 43.6875 102.4375 C40.67971437 105.44528563 37.72149549 105.55845058 33.59559631 105.59140015 C32.78956467 105.60000061 31.98353302 105.60860107 31.15307617 105.61746216 C29.83992432 105.62385208 29.83992432 105.62385208 28.50024414 105.63037109 C27.57134872 105.63854858 26.64245331 105.64672607 25.68540955 105.65515137 C22.61449829 105.67994564 19.54363295 105.69650274 16.47265625 105.7109375 C14.89883084 105.71892302 14.89883084 105.71892302 13.29321098 105.72706985 C7.74373989 105.7537706 2.19429109 105.77315865 -3.35522461 105.78759766 C-7.9501527 105.80095856 -12.54463898 105.82885541 -17.1394043 105.86962891 C-22.68779887 105.91886318 -28.23579151 105.94370677 -33.78439522 105.95082474 C-35.89874218 105.95754765 -38.01307981 105.97279658 -40.12730217 105.99671555 C-43.08396334 106.02826732 -46.03906491 106.02841921 -48.99584961 106.02099609 C-49.86925995 106.03740143 -50.74267029 106.05380676 -51.64254761 106.07070923 C-55.97517797 106.0261511 -57.79820247 105.81601892 -61.38977051 103.1726532 C-63.40555667 100.30512348 -63.88677712 99.46616131 -63.39282227 96.09155273 C-63.28508987 95.26042969 -63.17735748 94.42930664 -63.06636047 93.57299805 C-62.92200058 92.68136963 -62.77764069 91.78974121 -62.62890625 90.87109375 C-62.49941086 89.93185059 -62.36991547 88.99260742 -62.23649597 88.02490234 C-61.80899469 84.97050928 -61.34261713 81.92348562 -60.875 78.875 C-60.57405342 76.78493704 -60.27555706 74.69451983 -59.97949219 72.60375977 C-59.38845418 68.45881082 -58.78241977 64.31652176 -58.16259766 60.17578125 C-57.42529532 55.23688659 -56.73482169 50.2934176 -56.07421875 45.34375 C-55.73743485 42.85410498 -55.40023756 40.36451583 -55.0625 37.875 C-54.83735718 36.20425415 -54.83735718 36.20425415 -54.60766602 34.49975586 C-54.46385498 33.48792236 -54.32004395 32.47608887 -54.171875 31.43359375 C-54.05295898 30.57950928 -53.93404297 29.7254248 -53.81152344 28.84545898 C-53.07715573 25.30188331 -52.10648462 22.34133201 -49.703125 19.60546875 C-46.1675263 17.87810925 -42.86245432 18.37067594 -39.0625 18.75 C-37.94488281 18.8418457 -37.94488281 18.8418457 -36.8046875 18.93554688 C-34.97267845 19.0882143 -33.14235684 19.26089754 -31.3125 19.4375 C-31.13074219 17.83261719 -31.13074219 17.83261719 -30.9453125 16.1953125 C-29.8747803 9.83820154 -26.88000777 5.3173733 -21.6875 1.5 C-15.13548645 -2.50400828 -7.11979167 -3.21627655 0 0 Z M-17.3125 13.4375 C-19.5898501 16.25259993 -19.5898501 16.25259993 -19.3125 19.4375 C-12.7125 19.4375 -6.1125 19.4375 0.6875 19.4375 C-1.38953891 13.20638327 -1.83278513 12.28695173 -7.3125 9.4375 C-12.08201495 9.4375 -13.58450004 10.60097829 -17.3125 13.4375 Z M-33.3125 40.4375 C-38.94639007 48.93304852 -39.34586496 58.56259823 -38.3125 68.4375 C-36.24290227 77.32162685 -31.86522012 83.37692322 -24.3125 88.4375 C-15.20149881 93.50704541 -5.50662608 92.79307564 4.33203125 90.46484375 C9.77558502 88.79819108 14.63962276 86.48537724 18.6875 82.4375 C18.9818496 80.02862338 18.9818496 80.02862338 18.91796875 77.24609375 C18.91603516 76.21935547 18.91410156 75.19261719 18.91210938 74.13476562 C18.89986328 73.05904297 18.88761719 71.98332031 18.875 70.875 C18.87435547 69.79541016 18.87371094 68.71582031 18.87304688 67.60351562 C19.31414374 62.66906223 19.31414374 62.66906223 17.6875 58.4375 C15.83380389 58.35012355 13.97682459 58.33051847 12.12109375 58.33984375 C10.99638672 58.34306641 9.87167969 58.34628906 8.71289062 58.34960938 C7.52888672 58.35798828 6.34488281 58.36636719 5.125 58.375 C3.93712891 58.37951172 2.74925781 58.38402344 1.52539062 58.38867188 C-1.42062226 58.40050325 -4.36653681 58.41698713 -7.3125 58.4375 C-7.3125 61.7375 -7.3125 65.0375 -7.3125 68.4375 C-2.6925 68.4375 1.9275 68.4375 6.6875 68.4375 C6.3575 71.4075 6.0275 74.3775 5.6875 77.4375 C-2.09356885 81.00913816 -7.62825527 82.92084417 -16.0625 80.25 C-21.21956158 77.37394643 -23.3856568 73.8902264 -25.3125 68.4375 C-26.84597159 60.27547382 -26.25797001 53.30117503 -23.1875 45.625 C-19.92152916 41.81470068 -15.95945233 39.83990829 -11 39.0859375 C-6.0820625 38.90317631 -2.43562062 39.56090422 1.6875 42.4375 C4.0625 45.625 4.0625 45.625 5.6875 48.4375 C7.5016927 48.15655418 9.31385001 47.86243567 11.125 47.5625 C12.13433594 47.40007813 13.14367187 47.23765625 14.18359375 47.0703125 C15.42302734 46.75707031 15.42302734 46.75707031 16.6875 46.4375 C17.0175 45.7775 17.3475 45.1175 17.6875 44.4375 C14.96794617 38.30835629 10.64898101 33.11403121 4.3984375 30.46875 C-10.10335638 25.61985297 -23.18865276 28.80824797 -33.3125 40.4375 Z " fill="#FC924D" transform="translate(72.3125,8.5625)"/>
<path d="M0 0 C6.26413635 5.39007082 9.67858883 10.64081672 10.4375 19 C11.02798365 27.73915805 9.77650067 35.10308239 4.6875 42.3125 C0.14807816 46.85192184 -4.01828367 49.25244103 -10.546875 49.34375 C-16.40129325 48.95083602 -17.88792507 47.92888328 -23.3125 44.3125 C-23.6425 51.5725 -23.9725 58.8325 -24.3125 66.3125 C-28.6025 66.3125 -32.8925 66.3125 -37.3125 66.3125 C-38.28509261 58.36802303 -38.369012 50.64390496 -38.19140625 42.6484375 C-38.16779526 41.37521637 -38.14418427 40.10199524 -38.11985779 38.79019165 C-38.05667692 35.43976588 -37.98841957 32.08952511 -37.91760254 28.73925781 C-37.84632967 25.30672388 -37.78186821 21.87406235 -37.71679688 18.44140625 C-37.58824065 11.73163389 -37.45234828 5.02204612 -37.3125 -1.6875 C-33.3525 -1.6875 -29.3925 -1.6875 -25.3125 -1.6875 C-24.9825 -0.0375 -24.6525 1.6125 -24.3125 3.3125 C-23.61125 2.69375 -22.91 2.075 -22.1875 1.4375 C-15.27094323 -3.67473761 -7.59998925 -3.87169264 0 0 Z M-20.3125 11.3125 C-23.60051562 14.95280301 -24.19264552 17.75439171 -24.5625 22.5625 C-24.21362859 27.7955712 -23.04930822 32.25406063 -19.625 36.3125 C-16.1431278 37.81817447 -12.97399672 38.18428493 -9.3125 37.3125 C-5.55256573 34.19255454 -4.11712373 31.80693779 -3.375 27 C-3.04055536 21.17672866 -3.67160999 15.65662859 -7.0625 10.8125 C-12.01232663 7.51261558 -15.67678408 7.67910104 -20.3125 11.3125 Z " fill="#010101" transform="translate(375.3125,55.6875)"/>
<path d="M0 0 C4.62 0 9.24 0 14 0 C14.33 7.26 14.66 14.52 15 22 C16.98 20.68 18.96 19.36 21 18 C26.80632543 16.43848435 32.45592462 16.60843807 38 19 C41.65848435 22.00808713 43.63150446 24.49495543 45 29 C45.26154291 31.93694214 45.23307755 34.85424185 45.1953125 37.80078125 C45.1924826 38.63715622 45.18965271 39.47353119 45.18673706 40.33525085 C45.1755832 42.99448226 45.15048763 45.65337118 45.125 48.3125 C45.11496399 50.12043783 45.10583923 51.92838096 45.09765625 53.73632812 C45.07565959 58.15768312 45.04116294 62.57878358 45 67 C40.38 67 35.76 67 31 67 C30.98541748 65.95545654 30.97083496 64.91091309 30.95581055 63.8347168 C30.89784449 59.95985655 30.82061226 56.08557849 30.73754883 52.21118164 C30.70429137 50.53419441 30.67626192 48.85709503 30.65356445 47.17993164 C30.62003263 44.76920775 30.56772022 42.35951238 30.51171875 39.94921875 C30.50532883 39.19912033 30.4989389 38.44902191 30.49235535 37.67619324 C30.38729497 33.61288423 30.38729497 33.61288423 28.64770508 30.03051758 C25.97764217 28.36059085 24.07321252 28.56975025 21 29 C17.42458584 31.18588626 17.42458584 31.18588626 15.38305664 34.70605469 C14.86726772 37.79487092 14.7764418 40.82281919 14.68359375 43.953125 C14.66281265 44.61334656 14.64203156 45.27356812 14.62062073 45.95379639 C14.55549853 48.05243015 14.49641498 50.15118372 14.4375 52.25 C14.39427921 53.67709547 14.3506638 55.10417905 14.30664062 56.53125 C14.19911649 60.02071259 14.09976715 63.51027257 14 67 C9.38 67 4.76 67 0 67 C0 44.89 0 22.78 0 0 Z " fill="#000000" transform="translate(224,36)"/>
<path d="M0 0 C4.9355779 4.66784608 7.73203538 10.86897697 8.328125 17.609375 C8.48322189 25.72611236 6.68013977 32.21362773 1.6875 38.70703125 C-3.47793563 44.01451636 -9.76017341 46.11155671 -17.04296875 46.4375 C-25.13017217 46.08054757 -31.43476681 43.88186715 -37.28515625 38.2109375 C-41.9463394 32.64500381 -43.22040937 25.68169654 -43.0859375 18.5546875 C-42.36349719 10.87541457 -39.84485827 4.345385 -33.875 -0.6875 C-23.47867512 -7.37376384 -10.00477021 -7.87929328 0 0 Z M-26.875 11.3125 C-29.59618922 16.39994072 -29.27896276 21.82993656 -27.875 27.3125 C-26.11590171 30.36939458 -24.08176592 32.70911704 -20.875 34.3125 C-16.39682011 34.82921306 -14.40440536 34.65211854 -10.5625 32.1875 C-6.8061409 28.16906934 -6.04458805 25.21188618 -5.5625 19.8125 C-6.02020746 14.68617642 -7.60397211 11.65414055 -11.125 7.9375 C-17.55729787 4.13659671 -22.04418581 6.14465226 -26.875 11.3125 Z " fill="#000000" transform="translate(320.875,58.6875)"/>
<path d="M0 0 C2.69886967 3.00878772 4.28694332 5.37794759 5.0703125 9.3828125 C-4.76442612 11.97541244 -4.76442612 11.97541244 -8.9296875 10.3828125 C-9.3834375 9.8878125 -9.8371875 9.3928125 -10.3046875 8.8828125 C-12.91593365 6.47243144 -15.46986965 6.5617686 -18.9296875 6.3828125 C-21.77870817 7.20252966 -21.77870817 7.20252966 -23.9296875 8.3828125 C-23.9296875 9.0428125 -23.9296875 9.7028125 -23.9296875 10.3828125 C-23.11886719 10.62515625 -22.30804688 10.8675 -21.47265625 11.1171875 C0.43592185 17.74842185 0.43592185 17.74842185 5.0703125 22.3828125 C7.04830658 26.33880067 6.49172499 31.07096874 6.0703125 35.3828125 C3.59859209 40.94418343 -0.57679339 43.80009316 -5.9296875 46.3828125 C-14.62134236 48.73680236 -24.29153404 47.83315773 -32.2421875 43.6328125 C-36.36686629 40.17959305 -38.78904161 36.62300749 -39.9296875 31.3828125 C-29.07738726 28.73475667 -29.07738726 28.73475667 -25.9296875 29.3828125 C-24.2421875 31.8203125 -24.2421875 31.8203125 -22.9296875 34.3828125 C-20.47586616 35.60972317 -18.72984647 35.58457181 -15.9921875 35.6328125 C-14.67927734 35.67148438 -14.67927734 35.67148438 -13.33984375 35.7109375 C-10.5103006 35.32571607 -9.67835825 34.57586493 -7.9296875 32.3828125 C-10.12132167 29.88696323 -11.7314499 28.91015324 -14.94921875 28.13671875 C-15.72458984 27.93884766 -16.49996094 27.74097656 -17.29882812 27.53710938 C-18.91577162 27.14547558 -20.53295613 26.75483539 -22.15039062 26.36523438 C-28.22501469 24.81266296 -33.18176531 23.00469578 -36.8046875 17.5703125 C-38.30710012 13.31347673 -38.80705898 9.86869835 -37.2734375 5.5234375 C-34.83237722 0.5992297 -31.89869859 -1.38969977 -26.9296875 -3.6171875 C-18.45157106 -5.82887005 -7.02380404 -5.8863459 0 0 Z " fill="#010101" transform="translate(207.9296875,57.6171875)"/>
<path d="M0 0 C4.75996545 3.66935238 7.61719952 7.91402243 8.94921875 13.78125 C10.02038068 23.81581407 9.52606538 32.6290738 4.38671875 41.46875 C-1.51493937 47.06775899 -7.4409773 49.11924986 -15.55078125 49.40625 C-22.31013752 49.14024102 -27.72242297 48.10557062 -33.05078125 43.78125 C-40.34162726 35.25036256 -40.81012688 26.75778964 -40.27734375 15.95117188 C-39.64415016 9.88670572 -36.64792614 4.99660909 -32.30078125 0.84375 C-22.16447613 -5.58890517 -10.48131097 -6.22889338 0 0 Z M-26.30078125 11.28125 C-29.85897425 16.36438286 -29.64767307 21.78780196 -29.05078125 27.78125 C-27.82215067 31.68358443 -26.03442142 34.69221981 -23.30078125 37.71875 C-18.58517105 39.94556593 -14.66107256 40.30769139 -9.80078125 38.71875 C-5.44765162 35.6517723 -3.07506233 31.97094079 -2.05078125 26.78125 C-1.46319297 20.66807196 -2.08959165 16.17484535 -5.05078125 10.78125 C-7.40578032 7.98468861 -8.56391658 6.94353822 -12.05078125 5.78125 C-18.6323755 5.2937245 -21.89095665 6.38144489 -26.30078125 11.28125 Z " fill="#010101" transform="translate(155.05078125,56.21875)"/>
<path d="M0 0 C0.66 0 1.32 0 2 0 C2 2.97 2 5.94 2 9 C-4.86291081 13.09135068 -9.02160312 14.13297328 -17 14 C-17 13.34 -17 12.68 -17 12 C-16.38511719 11.95101562 -15.77023438 11.90203125 -15.13671875 11.8515625 C-14.32847656 11.77679688 -13.52023438 11.70203125 -12.6875 11.625 C-11.88699219 11.55539063 -11.08648437 11.48578125 -10.26171875 11.4140625 C-7.72775559 11.10435574 -7.72775559 11.10435574 -5 9 C-4.01 9.33 -3.02 9.66 -2 10 C-1.34 6.7 -0.68 3.4 0 0 Z " fill="#EC945D" transform="translate(77,77)"/>
<path d="M0 0 C0.33 0 0.66 0 1 0 C1.02578125 1.03898437 1.0515625 2.07796875 1.078125 3.1484375 C1.35829703 10.77900507 1.82741602 17.200605 5.2578125 24.1796875 C5.50273438 24.78039062 5.74765625 25.38109375 6 26 C5.67 26.66 5.34 27.32 5 28 C3.68 27.67 2.36 27.34 1 27 C-0.3300103 18.02243049 -0.08788039 9.05168034 0 0 Z " fill="#EE955F" transform="translate(33,61)"/>
<path d="M0 0 C-0.70125 0.680625 -1.4025 1.36125 -2.125 2.0625 C-4.79883395 4.72871619 -7.23971294 7.5596584 -9.66796875 10.44921875 C-10.72555357 11.68048318 -11.85228537 12.85228537 -13 14 C-12.6875 11.125 -12.6875 11.125 -12 8 C-11.01 7.34 -10.02 6.68 -9 6 C-8.31246699 4.34183216 -7.64438717 2.67540664 -7 1 C-4.53721199 -0.231394 -2.7204945 -0.07159196 0 0 Z " fill="#E9935A" transform="translate(49,40)"/>
<path d="M0 0 C0.99 0.495 0.99 0.495 2 1 C2.40729228 3.32156597 2.74438677 5.6568787 3 8 C3.99 7.67 4.98 7.34 6 7 C6.99 9.64 7.98 12.28 9 15 C4.75813398 13.48504785 3.11886095 10.87240105 1 7 C0.25 3.125 0.25 3.125 0 0 Z " fill="#EA9560" transform="translate(46,73)"/>
<path d="M0 0 C0.33 0.99 0.66 1.98 1 3 C-0.32 3.33 -1.64 3.66 -3 4 C-3.268125 5.0725 -3.53625 6.145 -3.8125 7.25 C-4.86227827 10.56508928 -5.74612328 12.43877646 -8 15 C-7.56509678 9.56370977 -6.3898616 6.2871779 -3 2 C-2.01 1.34 -1.02 0.68 0 0 Z " fill="#EC9360" transform="translate(54,49)"/>
<path d="M0 0 C2.31 0.33 4.62 0.66 7 1 C7 2.98 7 4.96 7 7 C6.34 7 5.68 7 5 7 C3.96210419 5.35666496 2.96432076 3.68756133 2 2 C1.34 1.34 0.68 0.68 0 0 Z " fill="#F0905B" transform="translate(67,19)"/>
<path d="M0 0 C0.33 0.66 0.66 1.32 1 2 C-1 5 -1 5 -4.125 5.6875 C-5.07375 5.790625 -6.0225 5.89375 -7 6 C-2.25 1.125 -2.25 1.125 0 0 Z " fill="#EF935D" transform="translate(53,9)"/>
<path d="M0 0 C0.99 0 1.98 0 3 0 C3 1.32 3 2.64 3 4 C1.35 4.33 -0.3 4.66 -2 5 C-1.34 3.35 -0.68 1.7 0 0 Z " fill="#F49358" transform="translate(45,16)"/>
<path d="" fill="#FFFFFF" transform="translate(0,0)"/>
<path d="" fill="#FFFFFF" transform="translate(0,0)"/>
<path d="" fill="#FFFFFF" transform="translate(0,0)"/>
<path d="" fill="#FFFFFF" transform="translate(0,0)"/>
<path d="" fill="#FFFFFF" transform="translate(0,0)"/>
<path d="" fill="#FFFFFF" transform="translate(0,0)"/>
<path d="" fill="#FFFFFF" transform="translate(0,0)"/>
<path d="" fill="#FFFFFF" transform="translate(0,0)"/>
<path d="" fill="#FFFFFF" transform="translate(0,0)"/>
<path d="" fill="#FFFFFF" transform="translate(0,0)"/>
<path d="" fill="#FFFFFF" transform="translate(0,0)"/>
<path d="" fill="#FFFFFF" transform="translate(0,0)"/>
<path d="" fill="#FFFFFF" transform="translate(0,0)"/>
<path d="" fill="#FFFFFF" transform="translate(0,0)"/>
<path d="" fill="#FFFFFF" transform="translate(0,0)"/>
<path d="" fill="#FFFFFF" transform="translate(0,0)"/>
<path d="" fill="#FFFFFF" transform="translate(0,0)"/>
<path d="" fill="#FFFFFF" transform="translate(0,0)"/>
<path d="" fill="#FFFFFF" transform="translate(0,0)"/>
<path d="" fill="#FFFFFF" transform="translate(0,0)"/>
<path d="" fill="#FFFFFF" transform="translate(0,0)"/>
<path d="" fill="#FFFFFF" transform="translate(0,0)"/>
<path d="" fill="#FFFFFF" transform="translate(0,0)"/>
<path d="" fill="#FFFFFF" transform="translate(0,0)"/>
<path d="" fill="#FFFFFF" transform="translate(0,0)"/>
<path d="" fill="#FFFFFF" transform="translate(0,0)"/>
<path d="" fill="#FFFFFF" transform="translate(0,0)"/>
<path d="" fill="#FFFFFF" transform="translate(0,0)"/>
<path d="" fill="#FFFFFF" transform="translate(0,0)"/>
<path d="" fill="#FFFFFF" transform="translate(0,0)"/>
<path d="" fill="#FFFFFF" transform="translate(0,0)"/>
<path d="" fill="#FFFFFF" transform="translate(0,0)"/>
<path d="" fill="#FFFFFF" transform="translate(0,0)"/>
<path d="" fill="#FFFFFF" transform="translate(0,0)"/>
<path d="" fill="#FFFFFF" transform="translate(0,0)"/>
<path d="" fill="#FFFFFF" transform="translate(0,0)"/>
<path d="" fill="#FFFFFF" transform="translate(0,0)"/>
<path d="" fill="#FFFFFF" transform="translate(0,0)"/>
<path d="" fill="#FFFFFF" transform="translate(0,0)"/>
<path d="" fill="#FFFFFF" transform="translate(0,0)"/>
<path d="" fill="#FFFFFF" transform="translate(0,0)"/>
<path d="" fill="#FFFFFF" transform="translate(0,0)"/>
<path d="" fill="#FFFFFF" transform="translate(0,0)"/>
<path d="" fill="#FFFFFF" transform="translate(0,0)"/>
<path d="" fill="#FFFFFF" transform="translate(0,0)"/>
<path d="" fill="#FFFFFF" transform="translate(0,0)"/>
<path d="" fill="#FFFFFF" transform="translate(0,0)"/>
<path d="" fill="#FFFFFF" transform="translate(0,0)"/>
<path d="" fill="#FFFFFF" transform="translate(0,0)"/>
<path d="" fill="#FFFFFF" transform="translate(0,0)"/>
<path d="" fill="#FFFFFF" transform="translate(0,0)"/>
<path d="" fill="#FFFFFF" transform="translate(0,0)"/>
<path d="" fill="#FFFFFF" transform="translate(0,0)"/>
<path d="" fill="#FFFFFF" transform="translate(0,0)"/>
<path d="" fill="#FFFFFF" transform="translate(0,0)"/>
<path d="" fill="#FFFFFF" transform="translate(0,0)"/>
<path d="" fill="#FFFFFF" transform="translate(0,0)"/>
<path d="" fill="#FFFFFF" transform="translate(0,0)"/>
<path d="" fill="#FFFFFF" transform="translate(0,0)"/>
<path d="" fill="#FFFFFF" transform="translate(0,0)"/>
</svg>
