<?xml version="1.0" encoding="UTF-8"?>
<!DOCTYPE svg PUBLIC "-//W3C//DTD SVG 1.1//EN" "http://www.w3.org/Graphics/SVG/1.1/DTD/svg11.dtd">
<svg xmlns="http://www.w3.org/2000/svg" version="1.1" width="118px" height="117px" style="shape-rendering:geometricPrecision; text-rendering:geometricPrecision; image-rendering:optimizeQuality; fill-rule:evenodd; clip-rule:evenodd" xmlns:xlink="http://www.w3.org/1999/xlink">
<g><path style="opacity:0.004" fill="#fefffe" d="M 29.5,-0.5 C 29.8333,-0.5 30.1667,-0.5 30.5,-0.5C 30.3147,0.170143 29.9813,0.170143 29.5,-0.5 Z"/></g>
<g><path style="opacity:0.004" fill="#fefffe" d="M 44.5,-0.5 C 44.8333,-0.5 45.1667,-0.5 45.5,-0.5C 45.3147,0.170143 44.9813,0.170143 44.5,-0.5 Z"/></g>
<g><path style="opacity:0.004" fill="#fefffe" d="M 40.5,3.5 C 41.8333,4.16667 41.8333,4.16667 40.5,3.5 Z"/></g>
<g><path style="opacity:0.004" fill="#fefffe" d="M 115.5,3.5 C 116.833,4.16667 116.833,4.16667 115.5,3.5 Z"/></g>
<g><path style="opacity:0.004" fill="#fefffe" d="M 102.5,4.5 C 103.833,5.16667 103.833,5.16667 102.5,4.5 Z"/></g>
<g><path style="opacity:0.004" fill="#fefffe" d="M 21.5,7.5 C 22.8333,8.16667 22.8333,8.16667 21.5,7.5 Z"/></g>
<g><path style="opacity:0.004" fill="#fefffe" d="M 78.5,7.5 C 79.8333,8.16667 79.8333,8.16667 78.5,7.5 Z"/></g>
<g><path style="opacity:0.004" fill="#fefffe" d="M 38.5,11.5 C 39.8333,12.1667 39.8333,12.1667 38.5,11.5 Z"/></g>
<g><path style="opacity:0.004" fill="#fefffe" d="M 9.5,13.5 C 10.8333,14.1667 10.8333,14.1667 9.5,13.5 Z"/></g>
<g><path style="opacity:0.004" fill="#fefffe" d="M 24.5,13.5 C 25.8333,14.1667 25.8333,14.1667 24.5,13.5 Z"/></g>
<g><path style="opacity:0.004" fill="#fefffe" d="M 24.5,14.5 C 23.8333,15.1667 23.8333,15.1667 24.5,14.5 Z"/></g>
<g><path style="opacity:0.004" fill="#fefffe" d="M 101.5,14.5 C 102.833,15.1667 102.833,15.1667 101.5,14.5 Z"/></g>
<g><path style="opacity:1" fill="#f89456" d="M 68.5,5.5 C 64.6766,6.64468 60.6766,7.14468 56.5,7C 57.9023,5.65753 57.5689,4.8242 55.5,4.5C 53.3904,5.05435 51.3904,5.88769 49.5,7C 48.5494,7.71752 48.3828,8.55085 49,9.5C 51,8.83333 53,8.16667 55,7.5C 55.3176,9.06092 56.1509,10.2276 57.5,11C 54.8791,11.9385 52.2125,12.7719 49.5,13.5C 49.6667,13.8333 49.8333,14.1667 50,14.5C 52.0266,14.9863 54.1933,14.9863 56.5,14.5C 52.8829,16.1169 50.2163,18.7836 48.5,22.5C 48.7093,23.086 49.0426,23.586 49.5,24C 55.8246,24.4995 62.1579,24.6662 68.5,24.5C 68.3713,22.7839 68.038,21.1172 67.5,19.5C 71.1677,22.2878 70.8344,24.9545 66.5,27.5C 65.5224,27.0233 64.6891,26.3567 64,25.5C 61.2595,26.2822 58.4262,26.7822 55.5,27C 53.9632,28.1096 53.2965,29.6096 53.5,31.5C 55.2769,31.2137 56.9436,30.5471 58.5,29.5C 62.9646,31.412 67.6313,32.5787 72.5,33C 73.3805,33.7083 74.0472,34.5416 74.5,35.5C 63.2003,31.1628 52.2003,31.8294 41.5,37.5C 40.9717,36.1526 40.805,34.8193 41,33.5C 42.016,34.6341 42.6827,34.3008 43,32.5C 47.6728,34.6928 50.1728,33.1928 50.5,28C 48.7412,27.2025 47.0745,27.3691 45.5,28.5C 46.6085,30.2141 45.9418,30.8808 43.5,30.5C 43.1143,27.3429 43.1143,24.3429 43.5,21.5C 43.2718,19.6031 42.2718,18.2697 40.5,17.5C 39.8539,24.1014 36.1872,26.9348 29.5,26C 28.8333,27 28.1667,28 27.5,29C 23.6985,29.9167 20.0318,30.0834 16.5,29.5C 16.4061,37.8349 15.0728,45.8349 12.5,53.5C 13.2455,45.1149 14.4121,36.7816 16,28.5C 16.4652,27.0692 17.2986,25.9025 18.5,25C 24.5275,24.8303 30.5275,24.3303 36.5,23.5C 41.0598,5.89811 51.7264,-0.101895 68.5,5.5 Z"/></g>
<g><path style="opacity:0.004" fill="#fefffe" d="M 104.5,17.5 C 105.833,18.1667 105.833,18.1667 104.5,17.5 Z"/></g>
<g><path style="opacity:0.004" fill="#fefffe" d="M 28.5,18.5 C 29.8333,19.1667 29.8333,19.1667 28.5,18.5 Z"/></g>
<g><path style="opacity:0.004" fill="#fefffe" d="M 6.5,19.5 C 7.83333,20.1667 7.83333,20.1667 6.5,19.5 Z"/></g>
<g><path style="opacity:0.004" fill="#fefffe" d="M 14.5,23.5 C 15.8333,24.1667 15.8333,24.1667 14.5,23.5 Z"/></g>
<g><path style="opacity:0.004" fill="#fefffe" d="M 107.5,23.5 C 108.833,24.1667 108.833,24.1667 107.5,23.5 Z"/></g>
<g><path style="opacity:0.004" fill="#fefffe" d="M 117.5,23.5 C 117.5,23.8333 117.5,24.1667 117.5,24.5C 116.83,24.0187 116.83,23.6853 117.5,23.5 Z"/></g>
<g><path style="opacity:0.004" fill="#fefffe" d="M 105.5,25.5 C 106.833,26.1667 106.833,26.1667 105.5,25.5 Z"/></g>
<g><path style="opacity:0.004" fill="#fdfffe" d="M -0.5,26.5 C 0.833333,27.1667 0.833333,27.1667 -0.5,26.5 Z"/></g>
<g><path style="opacity:0.004" fill="#fefffe" d="M 107.5,26.5 C 108.833,27.1667 108.833,27.1667 107.5,26.5 Z"/></g>
<g><path style="opacity:0.004" fill="#fefffe" d="M 10.5,30.5 C 11.8333,31.1667 11.8333,31.1667 10.5,30.5 Z"/></g>
<g><path style="opacity:1" fill="#fd914e" d="M 41.5,37.5 C 29.1904,49.7545 26.1904,64.0879 32.5,80.5C 31.1279,78.9113 29.4612,77.5779 27.5,76.5C 28.7888,70.8567 28.7888,65.1901 27.5,59.5C 27.4464,60.6869 27.1131,62.0202 26.5,63.5C 25.5745,62.3595 24.7412,62.3595 24,63.5C 23.3333,60.5 23.3333,57.5 24,54.5C 24.3333,54.8333 24.6667,55.1667 25,55.5C 25.7965,52.2791 25.2965,49.2791 23.5,46.5C 21.7295,47.0354 21.3961,47.8687 22.5,49C 21.8401,58.7974 21.0067,68.6307 20,78.5C 18.6369,77.1072 17.8036,75.4405 17.5,73.5C 18.8232,68.0786 18.4899,62.7452 16.5,57.5C 15.2798,56.2889 14.1131,56.2889 13,57.5C 12.5357,56.9056 12.369,56.2389 12.5,55.5C 12.5,54.8333 12.5,54.1667 12.5,53.5C 15.0728,45.8349 16.4061,37.8349 16.5,29.5C 20.0318,30.0834 23.6985,29.9167 27.5,29C 28.1667,28 28.8333,27 29.5,26C 36.1872,26.9348 39.8539,24.1014 40.5,17.5C 42.2718,18.2697 43.2718,19.6031 43.5,21.5C 43.1143,24.3429 43.1143,27.3429 43.5,30.5C 45.9418,30.8808 46.6085,30.2141 45.5,28.5C 47.0745,27.3691 48.7412,27.2025 50.5,28C 50.1728,33.1928 47.6728,34.6928 43,32.5C 42.6827,34.3008 42.016,34.6341 41,33.5C 40.805,34.8193 40.9717,36.1526 41.5,37.5 Z"/></g>
<g><path style="opacity:1" fill="#fd914c" d="M 68.5,5.5 C 69.8333,6.5 71.1667,7.5 72.5,8.5C 74.0456,11.7642 75.7123,15.0975 77.5,18.5C 72.1667,19.8333 72.1667,21.1667 77.5,22.5C 76.8333,23.1667 76.1667,23.8333 75.5,24.5C 82.8795,25.2171 90.2128,26.2171 97.5,27.5C 99.6363,30.599 99.9696,33.9323 98.5,37.5C 97.52,34.9135 97.1866,32.2469 97.5,29.5C 96.5,29.5 95.5,29.5 94.5,29.5C 94.7529,31.8273 94.0863,33.8273 92.5,35.5C 95.9247,44.0385 94.258,45.3718 87.5,39.5C 84.4772,43.54 82.8105,42.8733 82.5,37.5C 81.1667,37.5 79.8333,37.5 78.5,37.5C 76.847,37.3404 75.5137,36.6737 74.5,35.5C 74.0472,34.5416 73.3805,33.7083 72.5,33C 67.6313,32.5787 62.9646,31.412 58.5,29.5C 56.9436,30.5471 55.2769,31.2137 53.5,31.5C 53.2965,29.6096 53.9632,28.1096 55.5,27C 58.4262,26.7822 61.2595,26.2822 64,25.5C 64.6891,26.3567 65.5224,27.0233 66.5,27.5C 70.8344,24.9545 71.1677,22.2878 67.5,19.5C 64.6714,16.1078 61.0047,14.4411 56.5,14.5C 54.1933,14.9863 52.0266,14.9863 50,14.5C 49.8333,14.1667 49.6667,13.8333 49.5,13.5C 52.2125,12.7719 54.8791,11.9385 57.5,11C 56.1509,10.2276 55.3176,9.06092 55,7.5C 53,8.16667 51,8.83333 49,9.5C 48.3828,8.55085 48.5494,7.71752 49.5,7C 51.3904,5.88769 53.3904,5.05435 55.5,4.5C 57.5689,4.8242 57.9023,5.65753 56.5,7C 60.6766,7.14468 64.6766,6.64468 68.5,5.5 Z"/></g>
<g><path style="opacity:0.004" fill="#fefffe" d="M 112.5,33.5 C 113.833,34.1667 113.833,34.1667 112.5,33.5 Z"/></g>
<g><path style="opacity:0.004" fill="#fefffe" d="M -0.5,35.5 C 0.833333,36.1667 0.833333,36.1667 -0.5,35.5 Z"/></g>
<g><path style="opacity:0.004" fill="#fefffe" d="M 4.5,42.5 C 5.83333,43.1667 5.83333,43.1667 4.5,42.5 Z"/></g>
<g><path style="opacity:0.004" fill="#fefffe" d="M 9.5,46.5 C 10.8333,47.1667 10.8333,47.1667 9.5,46.5 Z"/></g>
<g><path style="opacity:1" fill="#fb9250" d="M 72.5,8.5 C 77.1233,12.5778 79.7899,17.7445 80.5,24C 86.5,24.3333 92.5,24.6667 98.5,25C 99.7014,25.9025 100.535,27.0692 101,28.5C 105.182,54.7681 108.515,81.1014 111,107.5C 110.5,108 110,108.5 109.5,109C 102.253,109.185 95.0867,109.685 88,110.5C 63.0626,109.528 38.2293,109.195 13.5,109.5C 44.3306,108.668 75.3306,108.168 106.5,108C 107.235,105.115 106.235,102.782 103.5,101C 104.451,100.282 104.617,99.4491 104,98.5C 101.667,99.1667 99.3333,99.8333 97,100.5C 96.2496,99.8742 95.4162,99.3742 94.5,99C 89.5111,98.5007 84.5111,98.3341 79.5,98.5C 79.2587,96.1137 79.9254,94.1137 81.5,92.5C 84.3253,91.7259 86.492,90.0592 88,87.5C 88.1667,83.5 88.3333,79.5 88.5,75.5C 88.4907,71.107 87.824,67.107 86.5,63.5C 86.5,62.8333 86.1667,62.5 85.5,62.5C 77.0161,61.507 68.3494,61.1736 59.5,61.5C 59.19,64.7131 59.5233,67.7131 60.5,70.5C 60.6107,71.1174 60.944,71.6174 61.5,72C 65.8206,72.499 70.1539,72.6657 74.5,72.5C 74.6646,75.5184 74.498,78.5184 74,81.5C 63.7038,88.7512 54.0371,88.0846 45,79.5C 41.709,72.1642 40.709,64.4976 42,56.5C 42.3736,54.5087 43.207,52.842 44.5,51.5C 47.3997,45.209 52.3997,42.209 59.5,42.5C 66.709,42.6868 71.8757,46.0201 75,52.5C 78.3642,51.2607 81.8642,50.5941 85.5,50.5C 84.4467,45.4545 82.1133,41.1212 78.5,37.5C 79.8333,37.5 81.1667,37.5 82.5,37.5C 82.8105,42.8733 84.4772,43.54 87.5,39.5C 94.258,45.3718 95.9247,44.0385 92.5,35.5C 94.0863,33.8273 94.7529,31.8273 94.5,29.5C 95.5,29.5 96.5,29.5 97.5,29.5C 97.1866,32.2469 97.52,34.9135 98.5,37.5C 99.9696,33.9323 99.6363,30.599 97.5,27.5C 90.2128,26.2171 82.8795,25.2171 75.5,24.5C 76.1667,23.8333 76.8333,23.1667 77.5,22.5C 72.1667,21.1667 72.1667,19.8333 77.5,18.5C 75.7123,15.0975 74.0456,11.7642 72.5,8.5 Z"/></g>
<g><path style="opacity:1" fill="#fe904b" d="M 44.5,51.5 C 47.8466,48.406 51.8466,46.406 56.5,45.5C 61.4641,48.4789 66.7974,50.6456 72.5,52C 75.0387,53.0992 75.7054,54.7658 74.5,57C 76.9018,57.8141 79.2351,57.6474 81.5,56.5C 80.3595,55.5745 80.3595,54.7412 81.5,54C 82.7932,53.51 84.1266,53.3433 85.5,53.5C 85.5,55.8333 85.5,58.1667 85.5,60.5C 77.6232,60.7859 69.7898,60.4525 62,59.5C 58.0768,59.8628 54.9102,61.5295 52.5,64.5C 54.5428,68.4201 56.0428,68.0868 57,63.5C 58.4803,65.3369 58.4803,67.3369 57,69.5C 55.5589,70.2598 54.0589,70.9264 52.5,71.5C 52.1133,75.2203 50.1133,77.2203 46.5,77.5C 46.33,76.1779 46.6634,75.0113 47.5,74C 45.7888,72.8668 45.2888,71.3668 46,69.5C 47.049,71.1066 48.549,71.7733 50.5,71.5C 50.0013,67.5101 49.5013,63.5101 49,59.5C 47.7581,60.8721 46.2581,61.8721 44.5,62.5C 43.7492,63.376 43.2492,64.376 43,65.5C 42.3518,60.6884 42.8518,56.0217 44.5,51.5 Z"/></g>
<g><path style="opacity:0.004" fill="#fdfffe" d="M -0.5,53.5 C 0.833333,54.1667 0.833333,54.1667 -0.5,53.5 Z"/></g>
<g><path style="opacity:0.004" fill="#fefffe" d="M 7.5,54.5 C 8.83333,55.1667 8.83333,55.1667 7.5,54.5 Z"/></g>
<g><path style="opacity:0.639" fill="#e9a87d" d="M 85.5,62.5 C 77.0267,63.1369 68.6933,63.1369 60.5,62.5C 60.5,65.1667 60.5,67.8333 60.5,70.5C 59.5233,67.7131 59.19,64.7131 59.5,61.5C 68.3494,61.1736 77.0161,61.507 85.5,62.5 Z"/></g>
<g><path style="opacity:0.004" fill="#fefffe" d="M 5.5,62.5 C 6.83333,63.1667 6.83333,63.1667 5.5,62.5 Z"/></g>
<g><path style="opacity:1" fill="#fd914d" d="M 32.5,80.5 C 39.3074,91.9037 49.3074,96.9037 62.5,95.5C 62.5,95.8333 62.5,96.1667 62.5,96.5C 62.4142,97.4959 62.7476,98.3292 63.5,99C 59.5,99.5 55.5,100 51.5,100.5C 44.3388,99.1095 37.1721,98.1095 30,97.5C 26,97.5 22,97.5 18,97.5C 16.9783,98.354 16.1449,99.354 15.5,100.5C 21.7208,101.185 27.8875,101.852 34,102.5C 37.6667,102.167 41.3333,101.833 45,101.5C 45.6667,102.5 45.6667,103.5 45,104.5C 35.6023,104.2 25.6023,103.866 15,103.5C 13.322,105.282 11.4886,105.615 9.5,104.5C 10.1667,103.833 10.8333,103.167 11.5,102.5C 9.95467,101.548 8.28801,101.215 6.5,101.5C 6.5,100.167 6.5,98.8333 6.5,97.5C 7.69506,83.2544 9.69506,69.2544 12.5,55.5C 12.369,56.2389 12.5357,56.9056 13,57.5C 14.1131,56.2889 15.2798,56.2889 16.5,57.5C 18.4899,62.7452 18.8232,68.0786 17.5,73.5C 17.8036,75.4405 18.6369,77.1072 20,78.5C 21.0067,68.6307 21.8401,58.7974 22.5,49C 21.3961,47.8687 21.7295,47.0354 23.5,46.5C 25.2965,49.2791 25.7965,52.2791 25,55.5C 24.6667,55.1667 24.3333,54.8333 24,54.5C 23.3333,57.5 23.3333,60.5 24,63.5C 24.7412,62.3595 25.5745,62.3595 26.5,63.5C 27.1131,62.0202 27.4464,60.6869 27.5,59.5C 28.7888,65.1901 28.7888,70.8567 27.5,76.5C 29.4612,77.5779 31.1279,78.9113 32.5,80.5 Z"/></g>
<g><path style="opacity:0.004" fill="#fefffe" d="M 2.5,80.5 C 3.83333,81.1667 3.83333,81.1667 2.5,80.5 Z"/></g>
<g><path style="opacity:0.004" fill="#fefffe" d="M 4.5,81.5 C 5.83333,82.1667 5.83333,82.1667 4.5,81.5 Z"/></g>
<g><path style="opacity:0.004" fill="#fefffe" d="M 112.5,84.5 C 113.833,85.1667 113.833,85.1667 112.5,84.5 Z"/></g>
<g><path style="opacity:1" fill="#ee9a64" d="M 86.5,63.5 C 87.824,67.107 88.4907,71.107 88.5,75.5C 88.3333,79.5 88.1667,83.5 88,87.5C 86.492,90.0592 84.3253,91.7259 81.5,92.5C 78.6374,92.9294 75.9707,93.9294 73.5,95.5C 69.8927,96.4892 66.226,96.8226 62.5,96.5C 62.5,96.1667 62.5,95.8333 62.5,95.5C 71.4704,95.3451 79.3038,92.3451 86,86.5C 86.4997,78.8406 86.6664,71.1739 86.5,63.5 Z"/></g>
<g><path style="opacity:1" fill="#fe904d" d="M 81.5,92.5 C 79.9254,94.1137 79.2587,96.1137 79.5,98.5C 84.5111,98.3341 89.5111,98.5007 94.5,99C 95.4162,99.3742 96.2496,99.8742 97,100.5C 99.3333,99.8333 101.667,99.1667 104,98.5C 104.617,99.4491 104.451,100.282 103.5,101C 106.235,102.782 107.235,105.115 106.5,108C 75.3306,108.168 44.3306,108.668 13.5,109.5C 10.6354,109.945 8.13544,109.278 6,107.5C 5.1925,103.973 5.35916,100.64 6.5,97.5C 6.5,98.8333 6.5,100.167 6.5,101.5C 8.28801,101.215 9.95467,101.548 11.5,102.5C 10.8333,103.167 10.1667,103.833 9.5,104.5C 11.4886,105.615 13.322,105.282 15,103.5C 25.6023,103.866 35.6023,104.2 45,104.5C 45.6667,103.5 45.6667,102.5 45,101.5C 41.3333,101.833 37.6667,102.167 34,102.5C 27.8875,101.852 21.7208,101.185 15.5,100.5C 16.1449,99.354 16.9783,98.354 18,97.5C 22,97.5 26,97.5 30,97.5C 37.1721,98.1095 44.3388,99.1095 51.5,100.5C 55.5,100 59.5,99.5 63.5,99C 62.7476,98.3292 62.4142,97.4959 62.5,96.5C 66.226,96.8226 69.8927,96.4892 73.5,95.5C 75.9707,93.9294 78.6374,92.9294 81.5,92.5 Z"/></g>
<g><path style="opacity:0.004" fill="#fefffe" d="M -0.5,107.5 C 0.833333,108.167 0.833333,108.167 -0.5,107.5 Z"/></g>
<g><path style="opacity:0.004" fill="#fefffe" d="M 110.5,110.5 C 111.833,111.167 111.833,111.167 110.5,110.5 Z"/></g>
<g><path style="opacity:0.004" fill="#fefffe" d="M 113.5,110.5 C 114.833,111.167 114.833,111.167 113.5,110.5 Z"/></g>
<g><path style="opacity:0.004" fill="#fefffe" d="M 25.5,111.5 C 26.8333,112.167 26.8333,112.167 25.5,111.5 Z"/></g>
<g><path style="opacity:0.004" fill="#fefffe" d="M 58.5,111.5 C 59.8333,112.167 59.8333,112.167 58.5,111.5 Z"/></g>
<g><path style="opacity:0.004" fill="#fefffe" d="M 84.5,112.5 C 85.8333,113.167 85.8333,113.167 84.5,112.5 Z"/></g>
<g><path style="opacity:0.004" fill="#fefffe" d="M 102.5,112.5 C 103.833,113.167 103.833,113.167 102.5,112.5 Z"/></g>
</svg>
